<?xml version="1.0" encoding="UTF-8" standalone="no"?>
<svg
   xmlns:dc="http://purl.org/dc/elements/1.1/"
   xmlns:cc="http://creativecommons.org/ns#"
   xmlns:rdf="http://www.w3.org/1999/02/22-rdf-syntax-ns#"
   xmlns:svg="http://www.w3.org/2000/svg"
   xmlns="http://www.w3.org/2000/svg"
   xmlns:sodipodi="http://sodipodi.sourceforge.net/DTD/sodipodi-0.dtd"
   xmlns:inkscape="http://www.inkscape.org/namespaces/inkscape"
   width="210mm"
   height="297mm"
   viewBox="0 0 210 297"
   version="1.1"
   id="svg8"
   inkscape:version="1.0.2 (e86c8708, 2021-01-15)"
   sodipodi:docname="pic_3.svg">
  <defs
     id="defs2" />
  <sodipodi:namedview
     id="base"
     pagecolor="#ffffff"
     bordercolor="#666666"
     borderopacity="1.0"
     inkscape:pageopacity="0.0"
     inkscape:pageshadow="2"
     inkscape:zoom="2.759165"
     inkscape:cx="310.05225"
     inkscape:cy="129.17586"
     inkscape:document-units="mm"
     inkscape:current-layer="layer1"
     inkscape:document-rotation="0"
     showgrid="true"
     showguides="false"
     inkscape:window-width="1470"
     inkscape:window-height="827"
     inkscape:window-x="0"
     inkscape:window-y="37"
     inkscape:window-maximized="0">
    <inkscape:grid
       type="xygrid"
       id="grid10" />
  </sodipodi:namedview>
  <metadata
     id="metadata5">
    <rdf:RDF>
      <cc:Work
         rdf:about="">
        <dc:format>image/svg+xml</dc:format>
        <dc:type
           rdf:resource="http://purl.org/dc/dcmitype/StillImage" />
        <dc:title></dc:title>
      </cc:Work>
    </rdf:RDF>
  </metadata>
  <g
     inkscape:label="Слой 1"
     inkscape:groupmode="layer"
     id="layer1">
    <path
       style="fill:none;stroke:#000000;stroke-width:0.264583px;stroke-linecap:butt;stroke-linejoin:miter;stroke-opacity:1"
       d="M 82.020832,13.229167 C 66.145833,7.9375 59.385678,20.283239 56.885416,33.072916 55.295035,45.909078 54.888772,58.136438 80.697916,56.885416 92.604167,55.5625 107.20237,59.533653 111.125,35.71875 c 1.32292,-7.9375 2.22963,-11.512627 -29.104168,-22.489583 z"
       id="path16"
       sodipodi:nodetypes="ccccc" />
    <circle
       style="fill:#000000;stroke:#000000;stroke-width:0.264999"
       id="path40"
       cx="70.379166"
       cy="26.458332"
       r="0.26458332" />
    <circle
       style="fill:#000000;stroke:#000000;stroke-width:0.264999"
       id="path40-6"
       cx="68.864319"
       cy="33.139305"
       r="0.26458332" />
    <path
       style="fill:none;stroke:#000000;stroke-width:0.264583px;stroke-linecap:butt;stroke-linejoin:miter;stroke-opacity:1"
       d="m 70.114582,26.458333 c 0.643105,-0.09264 1.30732,-0.09007 1.929313,-0.277925 1.241901,-0.375084 2.415095,-0.948706 3.630861,-1.401385 0.780368,-0.290562 1.5669,-0.564766 2.356874,-0.82809 2.997602,-0.999201 6.079027,-1.722275 9.172697,-2.356874 1.248346,-0.256071 2.491044,-0.566121 3.758258,-0.700692 3.375181,-0.358427 5.658577,-0.361031 7.516516,2.611671 0.221668,0.354669 0.4138,0.739461 0.509595,1.146587 0.720162,3.060685 -4.246229,2.176894 -5.796637,2.293174 -1.132022,0.0849 -2.36397,0.516691 -3.184964,1.337685 -0.07656,0.07656 -0.05695,0.210439 -0.0637,0.318498 -0.04615,0.738402 0.07457,1.37737 0.828091,1.719879 1.090879,0.495855 2.331344,0.113371 3.43976,0.445897 1.491126,0.447336 1.508652,1.710174 0.573294,2.739067 -1.880745,2.068822 -3.758687,2.615766 -6.433627,3.312364 -0.967274,0.251893 -1.944941,0.468468 -2.930167,0.636992 -0.421447,0.07209 -2.326188,0.353996 -2.993867,0.0637 -0.517392,-0.224954 -0.559223,-1.174242 -0.82809,-1.592482 -0.349723,-0.544013 -0.831495,-0.796579 -1.465085,-1.019188 -1.021488,-0.358902 -1.788422,-0.254799 -2.866467,-0.254799 -0.445894,0 -0.899665,-0.08343 -1.337685,0 -0.468728,0.08928 -0.882992,0.364921 -1.337686,0.509595 -0.480946,0.153027 -0.983597,0.23087 -1.465083,0.382196 -0.263332,0.08276 -0.498983,0.242665 -0.764392,0.318495 -0.807005,0.230574 -1.343001,0.283718 -2.165775,0 -0.261724,-0.09025 -0.485828,-0.271317 -0.700694,-0.445895 -0.611769,-0.497064 -0.407212,-1.246653 -0.573291,-1.910979 -0.08776,-0.351055 -0.341969,-0.237956 -0.130966,-0.432909"
       id="path72" />
    <path
       style="fill:none;stroke:#000000;stroke-width:0.264583px;stroke-linecap:butt;stroke-linejoin:miter;stroke-opacity:1"
       d="m 85.989583,44.979166 c -0.794278,4.633841 1.301879,5.349569 3.96875,5.291667 1.889699,-0.220472 3.394079,0.906909 6.614582,-3.96875 2.222549,-3.87153 -1.124955,-4.43188 -3.968749,-5.291667 -6.008224,-1.270854 -6.162537,1.45047 -6.614583,3.96875 z"
       id="path84"
       sodipodi:nodetypes="ccccc" />
    <path
       style="fill:none;stroke:#000000;stroke-width:0.264583px;stroke-linecap:butt;stroke-linejoin:miter;stroke-opacity:1"
       d="m 64.822916,23.8125 c -3.538168,4.27795 -2.645833,9.525 -2.645833,14.552083 0,5.291667 10.583334,9.260417 14.552083,2.645833 3.108054,-7.422535 17.523445,-18.948992 2.645833,-19.84375 -4.382455,-0.326767 -6.321804,-6.960155 -14.552083,2.645834"
       id="path86"
       sodipodi:nodetypes="ccccc" />
  </g>
</svg>
